STARTFONT 2.1
FONT -Monotype-Times New Roman-Bold-R-Normal--33-240-100-100-P-165-iso8859-7
SIZE 24 100 100
FONTBOUNDINGBOX 36 37 -1 -8

STARTPROPERTIES 24
FOUNDRY "Monotype"
FAMILY_NAME "Times New Roman"
WEIGHT_NAME "Bold"
SLANT "R"
SETWIDTH_NAME "Normal"
ADD_STYLE_NAME ""
PIXEL_SIZE 33
POINT_SIZE 240
RESOLUTION_X 100
RESOLUTION_Y 100
SPACING "P"
AVERAGE_WIDTH 165
CHARSET_REGISTRY "iso8859"
CHARSET_ENCODING "7"
FACE_NAME "Times New Roman Bold ISO Latin Greek"
_DEC_DEVICE_FONTNAMES "PS=timesnewroman-b-latgreek"
COPYRIGHT "Copyright (c) 1993 Monotype Typography Ltd."
CAP_HEIGHT 25
X_HEIGHT 17
WEIGHT 10
QUAD_WIDTH 20
DEFAULT_CHAR 160
FONT_DESCENT 8
FONT_ASCENT 29
ENDPROPERTIES

CHARS 185

STARTCHAR space
ENCODING 32
SWIDTH 250 0
DWIDTH 8 0
BBX 0 0 0 0
BITMAP
ENDCHAR

STARTCHAR exclam
ENCODING 33
SWIDTH 271 0
DWIDTH 9 0
BBX 5 24 2 0
BITMAP
20
F8
F8
F8
F8
F8
F8
F8
70
70
70
70
20
20
20
20
00
00
00
70
F8
F8
F8
70
ENDCHAR

STARTCHAR quotedbl
ENCODING 34
SWIDTH 552 0
DWIDTH 18 0
BBX 13 10 3 12
BITMAP
7070
F8F8
F8F8
F8F8
70F0
7070
7070
7070
2020
2020
ENDCHAR

STARTCHAR numbersign
ENCODING 35
SWIDTH 667 0
DWIDTH 22 0
BBX 20 23 1 -3
BITMAP
03C1C0
0381C0
0381C0
0381C0
038380
070380
FFFFF0
FFFFF0
FFFFF0
070700
0E0700
0E0700
0E0700
0E0E00
FFFFF0
FFFFF0
FFFFF0
1C0E00
1C1C00
381C00
381C00
381C00
383C00
ENDCHAR

STARTCHAR dollar
ENCODING 36
SWIDTH 500 0
DWIDTH 17 0
BBX 15 25 1 -2
BITMAP
0100
1FF0
313C
711C
E10C
F104
F104
F900
FF00
7F80
3FC0
1FF0
0FF8
03FC
01FC
017E
013E
811E
811E
C11C
E11C
F138
7FE0
0100
0100
ENDCHAR

STARTCHAR percent
ENCODING 37
SWIDTH 875 0
DWIDTH 29 0
BBX 26 23 1 0
BITMAP
1C001800
23001800
63003000
E3806000
E3806000
E380C000
E3818000
E3818000
E3830000
63060000
23060000
1C0C0E00
001C1180
00183180
003071C0
003071C0
006071C0
00C071C0
00C071C0
018071C0
03003180
03001180
06000E00
ENDCHAR

STARTCHAR ampersand
ENCODING 38
SWIDTH 771 0
DWIDTH 25 0
BBX 23 23 1 0
BITMAP
007C00
01DE00
018F00
038700
038700
03C700
03C600
03CC00
03F800
03E0FC
07F078
1DF030
38F860
70FC60
F87C40
F87EC0
F83F00
FC1F80
FE0FC0
7F0FE2
7FFFFC
3FF3F8
07C1F0
ENDCHAR

STARTCHAR quoteright
ENCODING 39
SWIDTH 271 0
DWIDTH 9 0
BBX 6 11 1 12
BITMAP
78
FC
FC
FC
7C
0C
0C
18
10
60
40
ENDCHAR

STARTCHAR parenleft
ENCODING 40
SWIDTH 333 0
DWIDTH 11 0
BBX 9 30 1 -7
BITMAP
0080
0300
0600
0C00
1C00
3800
3800
7800
7800
7800
F000
F000
F000
F000
F000
F000
F000
F000
F000
F800
7800
7800
3800
3800
1C00
0C00
0E00
0700
0180
0080
ENDCHAR

STARTCHAR parenright
ENCODING 41
SWIDTH 333 0
DWIDTH 11 0
BBX 9 30 1 -7
BITMAP
8000
6000
3000
1800
1C00
0E00
0E00
0F00
0F00
0700
0780
0780
0780
0780
0780
0780
0780
0780
0780
0780
0F00
0F00
0E00
0E00
1C00
1C00
3800
7000
C000
8000
ENDCHAR

STARTCHAR asterisk
ENCODING 42
SWIDTH 500 0
DWIDTH 17 0
BBX 13 13 2 11
BITMAP
0200
0700
0700
0700
E238
F278
FEF8
0200
0500
1DC0
38E0
38E0
1860
ENDCHAR

STARTCHAR plus
ENCODING 43
SWIDTH 667 0
DWIDTH 22 0
BBX 17 18 3 0
BITMAP
01C000
01C000
01C000
01C000
01C000
01C000
01C000
FFFF80
FFFF80
FFFF80
01C000
01C000
01C000
01C000
01C000
01C000
01C000
01C000
ENDCHAR

STARTCHAR comma
ENCODING 44
SWIDTH 271 0
DWIDTH 9 0
BBX 6 11 1 -6
BITMAP
78
FC
FC
FC
7C
0C
0C
18
10
60
40
ENDCHAR

STARTCHAR minus
ENCODING 45
SWIDTH 667 0
DWIDTH 22 0
BBX 18 3 2 7
BITMAP
FFFFC0
FFFFC0
FFFFC0
ENDCHAR

STARTCHAR period
ENCODING 46
SWIDTH 271 0
DWIDTH 9 0
BBX 5 5 2 0
BITMAP
70
F8
F8
F8
70
ENDCHAR

STARTCHAR slash
ENCODING 47
SWIDTH 281 0
DWIDTH 9 0
BBX 9 23 0 0
BITMAP
0780
0780
0780
0700
0700
0F00
0F00
0F00
0E00
1E00
1E00
1E00
1C00
3C00
3C00
3C00
3800
7800
7800
7800
7000
F000
F000
ENDCHAR

STARTCHAR zero
ENCODING 48
SWIDTH 500 0
DWIDTH 17 0
BBX 15 23 1 0
BITMAP
07C0
0C70
1C38
3838
783C
783C
783E
F83E
F83E
F83E
F83E
F83E
F83E
F83E
F83E
F83E
783C
783C
783C
3838
1C78
0C70
07C0
ENDCHAR

STARTCHAR one
ENCODING 49
SWIDTH 500 0
DWIDTH 17 0
BBX 12 23 2 0
BITMAP
0080
0780
1F80
FF80
0F80
0F80
0F80
0F80
0F80
0F80
0F80
0F80
0F80
0F80
0F80
0F80
0F80
0F80
0F80
0F80
0F80
0F80
7FF0
ENDCHAR

STARTCHAR two
ENCODING 50
SWIDTH 500 0
DWIDTH 17 0
BBX 15 23 1 0
BITMAP
07C0
1FF0
3FF8
3FF8
61FC
C0FC
407C
007C
0078
0078
0070
00F0
00E0
01C0
0180
0300
0600
0402
0806
1FFE
3FFC
7FFC
FFFC
ENDCHAR

STARTCHAR three
ENCODING 51
SWIDTH 500 0
DWIDTH 17 0
BBX 15 23 1 0
BITMAP
07E0
1FF0
3FF8
20FC
407C
407C
0078
0078
0060
00F0
03F8
07FC
01FC
007E
003E
003E
001E
001C
001C
E018
F838
FC60
7F80
ENDCHAR

STARTCHAR four
ENCODING 52
SWIDTH 500 0
DWIDTH 17 0
BBX 15 23 1 0
BITMAP
0018
0038
0078
00F8
01F8
01F8
02F8
06F8
0CF8
18F8
10F8
20F8
60F8
80F8
FFFE
FFFE
FFFE
FFFE
00F8
00F8
00F8
00F8
00F8
ENDCHAR

STARTCHAR five
ENCODING 53
SWIDTH 500 0
DWIDTH 17 0
BBX 15 23 1 0
BITMAP
0FFE
0FFC
1FFC
1FFC
1000
2000
3E00
3FC0
7FF0
7FF8
FFFC
03FC
007E
003E
001E
000E
000E
000C
400C
F808
FC10
7FE0
1F00
ENDCHAR

STARTCHAR six
ENCODING 54
SWIDTH 500 0
DWIDTH 17 0
BBX 15 23 1 0
BITMAP
000E
00F0
03C0
0780
0F00
1E00
3C00
3C00
7DE0
7FF8
F87C
F87C
F83E
F83E
F83E
F83E
F83E
783E
783C
3C3C
3C38
1E70
07C0
ENDCHAR

STARTCHAR seven
ENCODING 55
SWIDTH 500 0
DWIDTH 17 0
BBX 16 23 0 0
BITMAP
3FFF
3FFE
7FFE
7FFE
700C
401C
801C
0018
0038
0038
0030
0070
0070
0060
00E0
00E0
00C0
01C0
01C0
0180
0380
0380
0300
ENDCHAR

STARTCHAR eight
ENCODING 56
SWIDTH 500 0
DWIDTH 17 0
BBX 15 23 1 0
BITMAP
0FC0
3870
7078
F03C
F03C
F83C
F83C
7E38
7F70
3FC0
1FE0
07F0
1FF8
39FC
70FC
F07E
F03E
F03E
F03C
F03C
7838
3C70
0FC0
ENDCHAR

STARTCHAR nine
ENCODING 57
SWIDTH 500 0
DWIDTH 17 0
BBX 15 23 1 0
BITMAP
0FC0
1CF0
3878
787C
783C
F83C
F83E
F83E
F83E
F83E
783E
7C3E
3E3E
1FFC
0F7C
007C
0078
00F0
01E0
03C0
0780
1E00
E000
ENDCHAR

STARTCHAR colon
ENCODING 58
SWIDTH 271 0
DWIDTH 9 0
BBX 5 16 2 0
BITMAP
70
F8
F8
F8
70
00
00
00
00
00
00
70
F8
F8
F8
70
ENDCHAR

STARTCHAR semicolon
ENCODING 59
SWIDTH 271 0
DWIDTH 9 0
BBX 6 22 2 -6
BITMAP
70
F8
F8
F8
70
00
00
00
00
00
00
78
FC
FC
FC
7C
0C
0C
18
10
60
40
ENDCHAR

STARTCHAR less
ENCODING 60
SWIDTH 667 0
DWIDTH 22 0
BBX 18 18 2 0
BITMAP
000040
0003C0
000FC0
003FC0
01FF00
07F800
3FE000
FF0000
F80000
FC0000
FF0000
3FE000
07F800
01FF00
003FC0
000FC0
0003C0
000040
ENDCHAR

STARTCHAR equal
ENCODING 61
SWIDTH 667 0
DWIDTH 22 0
BBX 18 11 2 3
BITMAP
FFFFC0
FFFFC0
FFFFC0
000000
000000
000000
000000
000000
FFFFC0
FFFFC0
FFFFC0
ENDCHAR

STARTCHAR greater
ENCODING 62
SWIDTH 667 0
DWIDTH 22 0
BBX 18 18 2 0
BITMAP
800000
F00000
FC0000
FF0000
3FE000
07F800
01FF00
003FC0
0007C0
000FC0
003FC0
01FF00
07F800
3FE000
FF0000
FC0000
F00000
800000
ENDCHAR

STARTCHAR question
ENCODING 63
SWIDTH 385 0
DWIDTH 13 0
BBX 12 23 0 0
BITMAP
1F80
63C0
61E0
F1F0
F1F0
F1F0
61F0
01E0
01E0
03C0
0380
0600
0400
0400
0400
0000
0000
0000
0E00
1F00
1F00
1F00
0E00
ENDCHAR

STARTCHAR at
ENCODING 64
SWIDTH 927 0
DWIDTH 31 0
BBX 29 31 1 -8
BITMAP
000FF000
00780E00
01C00100
03000080
06000040
0C000060
18000020
30079C30
300E5C10
601C5C10
603C7810
60787810
C0787810
C0F07810
C0F0F010
C1F0F020
C1E1F020
C1E1F060
C1E2E040
41E5E080
41FDE108
61F9E608
20F0FC10
30000010
10000020
18000060
0C0000C0
06000180
01800600
00E03800
001FE000
ENDCHAR

STARTCHAR A
ENCODING 65
SWIDTH 719 0
DWIDTH 24 0
BBX 23 24 0 0
BITMAP
000800
001800
001800
001800
003C00
003C00
007E00
007E00
005E00
00BF00
009F00
019F80
010F80
030FC0
0207C0
0207C0
07FFE0
0403E0
0C03F0
0803F0
0801F0
1801F8
3801FC
FF07FE
ENDCHAR

STARTCHAR B
ENCODING 66
SWIDTH 667 0
DWIDTH 22 0
BBX 21 23 1 0
BITMAP
FFFF00
1F0FC0
1F07E0
1F03E0
1F03F0
1F03F0
1F03F0
1F03F0
1F03E0
1F07C0
1F1D80
1FFE00
1F0FC0
1F07E0
1F03F0
1F01F8
1F01F8
1F01F8
1F01F8
1F03F0
1F03F0
1F8FC0
FFFF00
ENDCHAR

STARTCHAR C
ENCODING 67
SWIDTH 719 0
DWIDTH 24 0
BBX 21 23 1 0
BITMAP
00FF08
03E1F8
0F8078
1F0018
1F0018
3E0008
7E0008
7C0000
7C0000
FC0000
FC0000
FC0000
FC0000
FC0000
FC0000
7C0000
7E0000
3E0000
3F0008
1F0018
0F8060
03E1C0
00FF00
ENDCHAR

STARTCHAR D
ENCODING 68
SWIDTH 771 0
DWIDTH 25 0
BBX 24 23 1 0
BITMAP
FFFF00
1F07E0
1F01F0
1F00F8
1F007C
1F007E
1F007E
1F003E
1F003F
1F003F
1F003F
1F003F
1F003F
1F003F
1F003F
1F003E
1F007E
1F007E
1F007C
1F00F8
1F01F0
1F87E0
FFFF00
ENDCHAR

STARTCHAR E
ENCODING 69
SWIDTH 667 0
DWIDTH 22 0
BBX 20 23 1 0
BITMAP
FFFFE0
1F01E0
1F00E0
1F0060
1F0020
1F0420
1F0420
1F0400
1F0C00
1F0C00
1F1C00
1FFC00
1F1C00
1F0C00
1F0400
1F0400
1F0410
1F0010
1F0010
1F0030
1F0070
1F81E0
FFFFE0
ENDCHAR

STARTCHAR F
ENCODING 70
SWIDTH 604 0
DWIDTH 20 0
BBX 18 23 1 0
BITMAP
FFFFC0
1F01C0
1F00C0
1F0040
1F0040
1F0040
1F0400
1F0400
1F0400
1F0C00
1F1C00
1FFC00
1F1C00
1F0C00
1F0400
1F0400
1F0400
1F0000
1F0000
1F0000
1F0000
3F8000
FFF000
ENDCHAR

STARTCHAR G
ENCODING 71
SWIDTH 771 0
DWIDTH 25 0
BBX 24 23 1 0
BITMAP
00FF08
03E1F8
0F8078
1F0038
1F0018
3E0008
7E0008
7C0000
7C0000
FC0000
FC0000
FC0000
FC0000
FC07FF
FC01FC
7C00F8
7E00F8
3E00F8
3E00F8
1F00F8
0F80F8
03C1F8
00FF80
ENDCHAR

STARTCHAR H
ENCODING 72
SWIDTH 823 0
DWIDTH 27 0
BBX 26 23 1 0
BITMAP
FFE1FFC0
3F807F00
1F003E00
1F003E00
1F003E00
1F003E00
1F003E00
1F003E00
1F003E00
1F003E00
1FFFFE00
1F003E00
1F003E00
1F003E00
1F003E00
1F003E00
1F003E00
1F003E00
1F003E00
1F003E00
1F003E00
3F807F00
FFE1FFC0
ENDCHAR

STARTCHAR I
ENCODING 73
SWIDTH 385 0
DWIDTH 13 0
BBX 11 23 1 0
BITMAP
FFE0
3F80
1F00
1F00
1F00
1F00
1F00
1F00
1F00
1F00
1F00
1F00
1F00
1F00
1F00
1F00
1F00
1F00
1F00
1F00
1F00
3F80
FFE0
ENDCHAR

STARTCHAR J
ENCODING 74
SWIDTH 552 0
DWIDTH 18 0
BBX 17 23 0 0
BITMAP
07FF80
00FE00
007C00
007C00
007C00
007C00
007C00
007C00
007C00
007C00
007C00
007C00
007C00
007C00
007C00
007C00
707C00
F87C00
F87C00
F07C00
707800
30F000
0FC000
ENDCHAR

STARTCHAR K
ENCODING 75
SWIDTH 719 0
DWIDTH 24 0
BBX 23 23 1 0
BITMAP
FFE7F8
3F81E0
1F01C0
1F0180
1F0300
1F0600
1F0C00
1F1800
1F1000
1F3800
1F7C00
1FFC00
1FBE00
1F3F00
1F3F00
1F1F80
1F1F80
1F0FC0
1F07E0
1F07E0
1F03F0
3F83F8
FFEFFE
ENDCHAR

STARTCHAR L
ENCODING 76
SWIDTH 667 0
DWIDTH 22 0
BBX 21 23 0 0
BITMAP
FFF800
1FC000
0F8000
0F8000
0F8000
0F8000
0F8000
0F8000
0F8000
0F8000
0F8000
0F8000
0F8000
0F8000
0F8000
0F8008
0F8008
0F8008
0F8018
0F8018
0F8030
0FC0F0
FFFFF0
ENDCHAR

STARTCHAR M
ENCODING 77
SWIDTH 990 0
DWIDTH 33 0
BBX 32 23 0 0
BITMAP
FF8001FF
3FC001FC
17C002F8
17E002F8
17E006F8
13E004F8
13F00CF8
11F008F8
11F818F8
10F810F8
10FC30F8
107C20F8
107E20F8
107E40F8
103F40F8
103FC0F8
101F80F8
101F80F8
100F00F8
100F00F8
100600F8
380601FC
FE0207FF
ENDCHAR

STARTCHAR N
ENCODING 78
SWIDTH 771 0
DWIDTH 25 0
BBX 24 23 1 0
BITMAP
FF007F
7F001C
3F8008
1FC008
17E008
17F008
13F808
11FC08
10FC08
107E08
107F08
103F88
101FC8
100FE8
1007F8
1003F8
1001F8
1000F8
1000F8
100078
100038
380018
FF0008
ENDCHAR

STARTCHAR O
ENCODING 79
SWIDTH 823 0
DWIDTH 27 0
BBX 25 23 1 0
BITMAP
00FF8000
03E1E000
0F80F800
1F007C00
3E003E00
3E003E00
7E003F00
7C001F00
FC001F80
FC001F80
FC001F80
FC001F80
FC001F80
FC001F80
FC001F80
7E001F00
7E003F00
3E003E00
3F003E00
1F007C00
0F80F800
03C3E000
00FF8000
ENDCHAR

STARTCHAR P
ENCODING 80
SWIDTH 667 0
DWIDTH 22 0
BBX 20 23 1 0
BITMAP
FFFE00
1F0F80
1F07E0
1F03E0
1F03F0
1F03F0
1F03F0
1F03F0
1F03E0
1F07C0
1F0F80
1FFE00
1F0000
1F0000
1F0000
1F0000
1F0000
1F0000
1F0000
1F0000
1F0000
3F8000
FFE000
ENDCHAR

STARTCHAR Q
ENCODING 81
SWIDTH 823 0
DWIDTH 27 0
BBX 25 29 1 -6
BITMAP
00FF8000
03C1E000
0F80F800
1F007C00
3E003E00
3E003E00
7E003F00
7C001F00
FC001F80
FC001F80
FC001F80
FC001F80
FC001F80
FC001F80
FC001F80
7C001F00
7E003F00
7E003F00
3E003E00
1F007C00
0F80F800
07C1F000
01FFC000
003F0000
003F0000
001F8000
000FC000
0007F000
0001FF00
ENDCHAR

STARTCHAR R
ENCODING 82
SWIDTH 719 0
DWIDTH 24 0
BBX 22 23 1 0
BITMAP
FFFE00
1F0F80
1F07C0
1F03E0
1F03E0
1F03E0
1F03E0
1F03E0
1F03E0
1F07C0
1F1F80
1FFC00
1F7E00
1F3E00
1F3F00
1F1F80
1F0F80
1F0FC0
1F07C0
1F07E0
1F03F0
3F83F0
FFE1FC
ENDCHAR

STARTCHAR S
ENCODING 83
SWIDTH 604 0
DWIDTH 20 0
BBX 18 23 1 0
BITMAP
0FF100
3C1F00
700700
F00300
E00100
F00100
F00100
FC0000
FF8000
7FF000
3FFC00
1FFF00
07FF80
00FF80
001FC0
800FC0
8007C0
8003C0
C003C0
E00380
F00700
FC1E00
87F800
ENDCHAR

STARTCHAR T
ENCODING 84
SWIDTH 667 0
DWIDTH 22 0
BBX 21 23 0 0
BITMAP
FFFFF8
F0F878
C0F818
C0F818
80F808
80F808
00F800
00F800
00F800
00F800
00F800
00F800
00F800
00F800
00F800
00F800
00F800
00F800
00F800
00F800
00F800
01FC00
07FF00
ENDCHAR

STARTCHAR U
ENCODING 85
SWIDTH 771 0
DWIDTH 25 0
BBX 24 23 1 0
BITMAP
FFE07F
3F801C
1F0008
1F0008
1F0008
1F0008
1F0008
1F0008
1F0008
1F0008
1F0008
1F0008
1F0008
1F0008
1F0008
1F0008
1F0008
1F0008
1F0010
0F8010
07C060
03F1C0
00FF00
ENDCHAR

STARTCHAR V
ENCODING 86
SWIDTH 719 0
DWIDTH 24 0
BBX 22 23 1 0
BITMAP
FFC1FC
7F0038
3F0030
3F0020
1F0060
1F8040
0F8040
0FC080
0FC080
07C180
07E100
03E300
03F200
03F200
01F600
01FC00
00FC00
00F800
00F800
007800
007000
003000
002000
ENDCHAR

STARTCHAR W
ENCODING 87
SWIDTH 990 0
DWIDTH 33 0
BBX 32 23 0 0
BITMAP
FF8FFC1F
3F03F006
3F03F006
3F01F004
1F01F80C
1F80F808
0F80F808
0F80FC18
0FC0FC10
07C17E10
07E17E30
03E33E20
03E23F20
03F61F40
01F41F40
01FC1FC0
01FC0F80
00F80F80
00F80F80
00700700
00700700
00600200
00200200
ENDCHAR

STARTCHAR X
ENCODING 88
SWIDTH 719 0
DWIDTH 24 0
BBX 22 23 1 0
BITMAP
FFC3F8
7F00E0
3F00C0
1F8080
1FC180
0FC300
07E200
07E400
03FC00
01F800
01F800
00FC00
007E00
00FE00
01BF00
013F80
031F80
060FC0
0C0FC0
0807E0
1803F0
3807F8
FF0FFC
ENDCHAR

STARTCHAR Y
ENCODING 89
SWIDTH 719 0
DWIDTH 24 0
BBX 22 23 1 0
BITMAP
FFC0FC
3F0038
3F0030
1F8020
1F8060
0FC040
07C0C0
07E080
03E180
03F100
01FB00
01FA00
00FE00
00FC00
007C00
007C00
007C00
007C00
007C00
007C00
007C00
00FE00
07FFC0
ENDCHAR

STARTCHAR Z
ENCODING 90
SWIDTH 719 0
DWIDTH 24 0
BBX 22 23 1 0
BITMAP
3FFFF0
3C07E0
3807E0
300FC0
200FC0
201F80
203F00
003F00
007E00
00FC00
00FC00
01F800
01F800
03F000
07E000
07E004
0FC004
0FC008
1F8008
3F0018
3F0038
7E00F8
FFFFF8
ENDCHAR

STARTCHAR bracketleft
ENCODING 91
SWIDTH 271 0
DWIDTH 9 0
BBX 6 29 2 -6
BITMAP
FC
F0
F0
F0
F0
F0
F0
F0
F0
F0
F0
F0
F0
F0
F0
F0
F0
F0
F0
F0
F0
F0
F0
F0
F0
F0
F0
F0
FC
ENDCHAR

STARTCHAR backslash
ENCODING 92
SWIDTH 281 0
DWIDTH 9 0
BBX 9 23 0 0
BITMAP
F000
F000
7000
7800
7800
7800
3800
3C00
3C00
3C00
3C00
1C00
1E00
1E00
1E00
0E00
0F00
0F00
0F00
0700
0780
0780
0780
ENDCHAR

STARTCHAR bracketright
ENCODING 93
SWIDTH 271 0
DWIDTH 9 0
BBX 6 29 1 -6
BITMAP
FC
3C
3C
3C
3C
3C
3C
3C
3C
3C
3C
3C
3C
3C
3C
3C
3C
3C
3C
3C
3C
3C
3C
3C
3C
3C
3C
3C
FC
ENDCHAR

STARTCHAR asciicircum
ENCODING 94
SWIDTH 583 0
DWIDTH 19 0
BBX 15 11 2 11
BITMAP
0180
0380
07C0
07C0
0EE0
0C70
1C70
1838
3838
701C
F00E
ENDCHAR

STARTCHAR underscore
ENCODING 95
SWIDTH 500 0
DWIDTH 17 0
BBX 17 2 0 -4
BITMAP
FFFF80
FFFF80
ENDCHAR

STARTCHAR quoteleft
ENCODING 96
SWIDTH 271 0
DWIDTH 9 0
BBX 6 11 1 13
BITMAP
04
18
20
60
C0
C0
F8
FC
FC
7C
78
ENDCHAR

STARTCHAR a
ENCODING 97
SWIDTH 500 0
DWIDTH 17 0
BBX 15 16 1 0
BITMAP
0FE0
38F0
70F8
F0F8
F8F8
78F8
01F8
0778
1CF8
38F8
78F8
78F8
F8F8
FFFA
7E7C
3C78
ENDCHAR

STARTCHAR b
ENCODING 98
SWIDTH 500 0
DWIDTH 17 0
BBX 15 23 1 0
BITMAP
FC00
7C00
7C00
7C00
7C00
7C00
7C00
7DE0
7DF8
7E7C
7C3C
7C3E
7C3E
7C3E
7C3E
7C3E
7C3E
7C3C
7C3C
7C3C
7C78
7670
63C0
ENDCHAR

STARTCHAR c
ENCODING 99
SWIDTH 438 0
DWIDTH 14 0
BBX 13 16 1 0
BITMAP
0FC0
1CF0
38F8
70F8
7078
F030
F000
F000
F800
F800
F800
7C08
7E18
3FF0
1FE0
0780
ENDCHAR

STARTCHAR d
ENCODING 100
SWIDTH 500 0
DWIDTH 17 0
BBX 16 23 0 0
BITMAP
01FC
007C
007C
007C
007C
007C
007C
1F7C
3CFC
787C
787C
787C
F87C
F87C
F87C
F87C
F87C
F87C
787C
7C7C
3CFC
3FBF
0F70
ENDCHAR

STARTCHAR e
ENCODING 101
SWIDTH 438 0
DWIDTH 14 0
BBX 13 16 1 0
BITMAP
0F80
18E0
3870
7070
F078
F078
FFF8
F000
F000
F800
F800
7C08
7E10
3FE0
1FC0
0700
ENDCHAR

STARTCHAR f
ENCODING 102
SWIDTH 333 0
DWIDTH 11 0
BBX 12 23 1 0
BITMAP
07E0
0EF0
1EF0
3EE0
3E00
3E00
3E00
FF80
FF80
3E00
3E00
3E00
3E00
3E00
3E00
3E00
3E00
3E00
3E00
3E00
3E00
3E00
FF80
ENDCHAR

STARTCHAR g
ENCODING 103
SWIDTH 500 0
DWIDTH 17 0
BBX 15 23 1 -7
BITMAP
0FFE
3CFE
7870
7878
F878
F878
7878
7878
3870
14E0
0FC0
1000
3000
7000
7FF8
7FFC
7FFE
1FFE
601E
E00E
E00C
7018
1FE0
ENDCHAR

STARTCHAR h
ENCODING 104
SWIDTH 500 0
DWIDTH 17 0
BBX 15 23 1 0
BITMAP
FC00
7C00
7C00
7C00
7C00
7C00
7C00
7CF0
7DF8
7E78
7C7C
7C7C
7C7C
7C7C
7C7C
7C7C
7C7C
7C7C
7C7C
7C7C
7C7C
7C7C
FEFE
ENDCHAR

STARTCHAR i
ENCODING 105
SWIDTH 271 0
DWIDTH 9 0
BBX 8 23 0 0
BITMAP
1C
3E
3E
3E
1C
00
00
FE
3E
3E
3E
3E
3E
3E
3E
3E
3E
3E
3E
3E
3E
3E
FF
ENDCHAR

STARTCHAR j
ENCODING 106
SWIDTH 271 0
DWIDTH 9 0
BBX 8 30 -1 -7
BITMAP
0E
1F
1F
1F
0E
00
00
7F
1F
1F
1F
1F
1F
1F
1F
1F
1F
1F
1F
1F
1F
1F
1F
0F
0F
0F
27
E6
F6
78
ENDCHAR

STARTCHAR k
ENCODING 107
SWIDTH 552 0
DWIDTH 18 0
BBX 17 23 0 0
BITMAP
FE0000
3E0000
3E0000
3E0000
3E0000
3E0000
3E0000
3E7F00
3E1C00
3E1800
3E3000
3E2000
3E4000
3EE000
3EE000
3FF000
3EF800
3EF800
3E7C00
3E3C00
3E3E00
3E1F00
FF3F80
ENDCHAR

STARTCHAR l
ENCODING 108
SWIDTH 271 0
DWIDTH 9 0
BBX 8 23 0 0
BITMAP
FE
3E
3E
3E
3E
3E
3E
3E
3E
3E
3E
3E
3E
3E
3E
3E
3E
3E
3E
3E
3E
3E
FF
ENDCHAR

STARTCHAR m
ENCODING 109
SWIDTH 771 0
DWIDTH 25 0
BBX 24 16 1 0
BITMAP
FCF0F8
7FF9FC
7E7E3E
7C7C3E
7C7C3E
7C7C3E
7C7C3E
7C7C3E
7C7C3E
7C7C3E
7C7C3E
7C7C3E
7C7C3E
7C7C3E
7C7C3E
FEFE7F
ENDCHAR

STARTCHAR n
ENCODING 110
SWIDTH 500 0
DWIDTH 17 0
BBX 15 16 1 0
BITMAP
FCF0
7DF8
7E78
7C7C
7C7C
7C7C
7C7C
7C7C
7C7C
7C7C
7C7C
7C7C
7C7C
7C7C
7C7C
FEFE
ENDCHAR

STARTCHAR o
ENCODING 111
SWIDTH 500 0
DWIDTH 17 0
BBX 15 16 1 0
BITMAP
0FC0
1C70
3C38
783C
783C
F83E
F83E
F83E
F83E
F83E
783E
783C
783C
3C78
1C70
07C0
ENDCHAR

STARTCHAR p
ENCODING 112
SWIDTH 500 0
DWIDTH 17 0
BBX 16 22 0 -6
BITMAP
FEF0
3EFC
3F3E
3E1E
3E1E
3E1F
3E1F
3E1F
3E1F
3E1F
3E1F
3E1E
3E1E
3F3C
3EF8
3E70
3E00
3E00
3E00
3E00
3E00
FF80
ENDCHAR

STARTCHAR q
ENCODING 113
SWIDTH 500 0
DWIDTH 17 0
BBX 15 22 1 -6
BITMAP
0784
1CEC
3C7C
787C
787C
787C
F87C
F87C
F87C
F87C
F87C
787C
787C
3CFC
3FBC
0F7C
007C
007C
007C
007C
007C
01FE
ENDCHAR

STARTCHAR r
ENCODING 114
SWIDTH 385 0
DWIDTH 13 0
BBX 11 16 1 0
BITMAP
FCE0
7DE0
7DE0
7CE0
7C00
7C00
7C00
7C00
7C00
7C00
7C00
7C00
7C00
7C00
7C00
FF00
ENDCHAR

STARTCHAR s
ENCODING 115
SWIDTH 385 0
DWIDTH 13 0
BBX 11 16 1 0
BITMAP
3E40
71C0
E0C0
E040
F040
FC00
FF00
7F80
3FC0
0FE0
03E0
81E0
C0E0
C0E0
F1C0
8F00
ENDCHAR

STARTCHAR t
ENCODING 116
SWIDTH 333 0
DWIDTH 11 0
BBX 10 21 0 0
BITMAP
0200
0600
0E00
1E00
3E00
7FC0
FFC0
3E00
3E00
3E00
3E00
3E00
3E00
3E00
3E00
3E00
3E00
3E40
1E40
1F80
0F00
ENDCHAR

STARTCHAR u
ENCODING 117
SWIDTH 500 0
DWIDTH 17 0
BBX 16 16 0 0
BITMAP
FCFE
7C3E
7C3E
7C3E
7C3E
7C3E
7C3E
7C3E
7C3E
7C3E
7C3E
7C3E
7C3E
3EFE
3FBE
1F3F
ENDCHAR

STARTCHAR v
ENCODING 118
SWIDTH 438 0
DWIDTH 14 0
BBX 14 16 0 0
BITMAP
FF3C
3E18
3E18
3E10
1E10
1F20
1F20
0F20
0FC0
07C0
07C0
0780
0380
0300
0300
0100
ENDCHAR

STARTCHAR w
ENCODING 119
SWIDTH 667 0
DWIDTH 22 0
BBX 21 16 1 0
BITMAP
FEFF78
7C7C30
7C3C30
3C3E20
3E7E20
3E5E60
1E5F40
1FDF40
1F8FC0
0F8F80
0F8F80
0F0700
070700
070700
060200
020200
ENDCHAR

STARTCHAR x
ENCODING 120
SWIDTH 552 0
DWIDTH 18 0
BBX 17 16 1 0
BITMAP
FF1F00
3E0C00
3E0800
1F1800
0FB000
0FA000
07C000
03E000
01E000
03F000
02F800
04F800
087C00
107E00
383F00
FCFF80
ENDCHAR

STARTCHAR y
ENCODING 121
SWIDTH 500 0
DWIDTH 17 0
BBX 15 23 1 -7
BITMAP
FF3E
7C0C
7C08
3E08
3E10
1E10
1F10
1F20
0FA0
0FA0
07C0
07C0
07C0
0380
0380
0100
0100
0100
6200
F200
F600
7C00
3800
ENDCHAR

STARTCHAR z
ENCODING 122
SWIDTH 438 0
DWIDTH 14 0
BBX 14 16 0 0
BITMAP
3FFC
30F8
20F8
21F0
21F0
03E0
03E0
07C0
0FC0
0F80
1F00
1F04
3E0C
3E08
7C38
FFF8
ENDCHAR

STARTCHAR braceleft
ENCODING 123
SWIDTH 396 0
DWIDTH 13 0
BBX 8 29 3 -6
BITMAP
07
0C
1C
38
38
3C
3C
3C
1C
1C
1C
1C
38
60
80
70
38
1C
1C
1C
3C
3C
3C
3C
38
38
1C
0E
03
ENDCHAR

STARTCHAR bar
ENCODING 124
SWIDTH 219 0
DWIDTH 7 0
BBX 3 28 2 -5
BITMAP
E0
E0
E0
E0
E0
E0
E0
E0
E0
E0
E0
E0
E0
E0
E0
E0
E0
E0
E0
E0
E0
E0
E0
E0
E0
E0
E0
E0
ENDCHAR

STARTCHAR braceright
ENCODING 125
SWIDTH 396 0
DWIDTH 13 0
BBX 8 29 2 -6
BITMAP
E0
30
38
1C
1C
3C
3C
3C
3C
38
38
18
1C
06
03
0E
1C
38
38
38
3C
3C
3C
1C
1C
1C
38
70
C0
ENDCHAR

STARTCHAR asciitilde
ENCODING 126
SWIDTH 521 0
DWIDTH 17 0
BBX 18 6 0 6
BITMAP
3E00C0
7FC080
FFF180
C7FF80
80FF00
803E00
ENDCHAR

STARTCHAR space
ENCODING 160
SWIDTH 250 0
DWIDTH 9 0
BBX 0 0 0 0
BITMAP
ENDCHAR

STARTCHAR quoteleft
ENCODING 161
SWIDTH 271 0
DWIDTH 9 0
BBX 6 11 1 13
BITMAP
04
18
20
60
C0
C0
F8
FC
FC
7C
78
ENDCHAR

STARTCHAR quoteright
ENCODING 162
SWIDTH 271 0
DWIDTH 9 0
BBX 6 11 1 12
BITMAP
78
FC
FC
FC
7C
0C
0C
18
10
60
40
ENDCHAR

STARTCHAR sterling
ENCODING 163
SWIDTH 500 0
DWIDTH 17 0
BBX 15 23 1 0
BITMAP
01F0
0738
0E3C
0E3C
1E3C
1E3C
1F00
1F00
1F00
1F00
FFF0
FFF0
0F00
0F00
0F00
0700
0700
3F02
FF06
87FE
8FFE
CDFC
78F8
ENDCHAR

STARTCHAR brokenbar
ENCODING 166
SWIDTH 220 0
DWIDTH 7 0
BBX 2 30 3 -7
BITMAP
C0
C0
C0
C0
C0
C0
C0
C0
C0
C0
00
00
00
00
00
00
00
00
00
00
C0
C0
C0
C0
C0
C0
C0
C0
C0
C0
ENDCHAR

STARTCHAR section
ENCODING 167
SWIDTH 500 0
DWIDTH 17 0
BBX 14 30 1 -7
BITMAP
0FE0
3C70
3878
7078
7078
7830
7C00
3F00
0F80
1FC0
37F0
61F8
60F8
E07C
E03C
F01C
F81C
7C18
3E18
3FB0
0FE0
07E0
01F0
00F8
3078
7838
7838
7830
38F0
1FC0
ENDCHAR

STARTCHAR dieresis
ENCODING 168
SWIDTH 333 0
DWIDTH 11 0
BBX 10 4 1 18
BITMAP
F3C0
F3C0
F3C0
F1C0
ENDCHAR

STARTCHAR copyright
ENCODING 169
SWIDTH 750 0
DWIDTH 25 0
BBX 23 23 1 0
BITMAP
01FF00
0783C0
0C0060
180030
307E98
61C18C
438084
C78086
C70006
8F0002
8F0002
8F0002
8F0002
C70006
C78006
438084
61C30C
20FC08
300018
180070
0E00E0
03C780
00FE00
ENDCHAR

STARTCHAR guillemotleft
ENCODING 171
SWIDTH 500 0
DWIDTH 17 0
BBX 15 15 1 1
BITMAP
0306
060C
0C0C
1C18
3838
7870
F0F0
F1E0
F0F0
7870
3838
1C18
0C1C
060C
0306
ENDCHAR

STARTCHAR logicalnot
ENCODING 172
SWIDTH 667 0
DWIDTH 22 0
BBX 18 11 2 3
BITMAP
FFFFC0
FFFFC0
FFFFC0
0001C0
0001C0
0001C0
0001C0
0001C0
0001C0
0001C0
0001C0
ENDCHAR

STARTCHAR hyphen
ENCODING 173
SWIDTH 333 0
DWIDTH 11 0
BBX 9 3 1 6
BITMAP
FF80
FF80
FF80
ENDCHAR

STARTCHAR endash
ENCODING 175
SWIDTH 500 0
DWIDTH 17 0
BBX 17 2 0 7
BITMAP
FFFF80
FFFF80
ENDCHAR

STARTCHAR degree
ENCODING 176
SWIDTH 396 0
DWIDTH 13 0
BBX 11 11 1 11
BITMAP
1F00
3F80
71C0
E0E0
C060
C060
C060
E0E0
71C0
3F80
1F00
ENDCHAR

STARTCHAR plusminus
ENCODING 177
SWIDTH 667 0
DWIDTH 22 0
BBX 17 23 3 0
BITMAP
01C000
01C000
01C000
01C000
01C000
01C000
01C000
FFFF80
FFFF80
FFFF80
01C000
01C000
01C000
01C000
01C000
01C000
01C000
000000
000000
000000
FFFF80
FFFF80
FFFF80
ENDCHAR

STARTCHAR twosuperior
ENCODING 178
SWIDTH 313 0
DWIDTH 10 0
BBX 9 12 1 11
BITMAP
3E00
7F00
8F00
8700
0700
0600
0C00
1800
1000
2180
7F00
FF00
ENDCHAR

STARTCHAR threesuperior
ENCODING 179
SWIDTH 313 0
DWIDTH 10 0
BBX 9 12 1 11
BITMAP
3C00
7F00
8700
0700
0400
3F00
0F80
0780
0380
0300
E200
FC00
ENDCHAR

STARTCHAR acute
ENCODING 180
SWIDTH 333 0
DWIDTH 11 0
BBX 7 6 3 17
BITMAP
3E
78
70
70
E0
C0
ENDCHAR

STARTCHAR dieresisacute
ENCODING 181
SWIDTH 333 0
DWIDTH 11 0
BBX 11 4 0 19
BITMAP
0780
EEE0
ECE0
ECE0
ENDCHAR

STARTCHAR afii9936
ENCODING 182
SWIDTH 708 0
DWIDTH 23 0
BBX 23 23 0 0
BITMAP
0F8800
1E1800
1C1800
183C00
303C00
207E00
007E00
007E00
00DF00
009F00
019F80
010F80
010F80
020FC0
0207C0
07FFE0
0403E0
0C03F0
0803F0
0801F0
1801F8
3801FC
FF07FE
ENDCHAR

STARTCHAR periodcentered
ENCODING 183
SWIDTH 271 0
DWIDTH 9 0
BBX 5 5 2 9
BITMAP
70
F8
F8
F8
70
ENDCHAR

STARTCHAR afii9937
ENCODING 184
SWIDTH 875 0
DWIDTH 29 0
BBX 28 23 0 0
BITMAP
7CFFFFE0
781F01E0
701F00E0
E01F0060
C01F0020
801F0420
001F0420
001F0400
001F0C00
001F0C00
001F1C00
001FFC00
001F1C00
001F0C00
001F0400
001F0400
001F0410
001F0010
001F0010
001F0030
001F0070
001F81E0
00FFFFE0
ENDCHAR

STARTCHAR afii9938
ENCODING 185
SWIDTH 1042 0
DWIDTH 34 0
BBX 34 23 0 0
BITMAP
3EFFE1FFC0
783F807F00
701F003E00
601F003E00
C01F003E00
C01F003E00
001F003E00
001F003E00
001F003E00
001F003E00
001F003E00
001FFFFE00
001F003E00
001F003E00
001F003E00
001F003E00
001F003E00
001F003E00
001F003E00
001F003E00
001F003E00
003F807F00
00FFE1FFC0
ENDCHAR

STARTCHAR afii9939
ENCODING 186
SWIDTH 594 0
DWIDTH 20 0
BBX 19 23 0 0
BITMAP
3EFFE0
783F80
701F00
601F00
C01F00
801F00
001F00
001F00
001F00
001F00
001F00
001F00
001F00
001F00
001F00
001F00
001F00
001F00
001F00
001F00
001F00
003F80
00FFE0
ENDCHAR

STARTCHAR guillemotright
ENCODING 187
SWIDTH 500 0
DWIDTH 17 0
BBX 15 15 1 1
BITMAP
8100
C080
60C0
7060
3870
3C38
1E3C
1F1E
1E3C
3C38
3870
7060
60C0
C0C0
8180
ENDCHAR

STARTCHAR afii9940
ENCODING 188
SWIDTH 875 0
DWIDTH 29 0
BBX 28 23 0 0
BITMAP
7C1FF000
787C3C00
71F01F00
E3E00F80
C7C007C0
87C007C0
0FC007E0
0F8003E0
1F8003F0
1F8003F0
1F8003F0
1F8003F0
1F8003F0
1F8003F0
1F8003F0
0FC003E0
0FC007E0
07C007C0
07E007C0
03E00F80
01F01F00
00787C00
001FF000
ENDCHAR

STARTCHAR onehalf
ENCODING 189
SWIDTH 896 0
DWIDTH 30 0
BBX 27 24 2 -1
BITMAP
08001800
78003000
B8003000
38006000
3800C000
3800C000
38018000
38018000
38030000
38060000
38060000
FE0C0F00
000C1FC0
001823C0
003021C0
003001C0
00600180
00600300
00C00300
01800600
01800860
03001FC0
03003FC0
06000000
ENDCHAR

STARTCHAR afii9941
ENCODING 190
SWIDTH 927 0
DWIDTH 31 0
BBX 30 23 0 0
BITMAP
7CFFC0FC
783F0038
703F0030
E01F8020
C01F8060
800FC040
0007C0C0
0007E080
0003E180
0003F100
0001FB00
0001FA00
0000FE00
0000FC00
00007C00
00007C00
00007C00
00007C00
00007C00
00007C00
00007C00
0000FE00
0007FFC0
ENDCHAR

STARTCHAR afii9942
ENCODING 191
SWIDTH 875 0
DWIDTH 29 0
BBX 29 23 -1 0
BITMAP
3E1FF800
3C7C3E00
79F00F80
73E007C0
63E007E0
C7E003E0
07C003F0
0FC003F0
0FC003F0
0FC003F0
0FC003F0
0FC003F0
07C003E0
07E003E0
03E007C0
01E00780
00F00F00
10181808
18081018
1FF81FF8
1FF81FF8
1FFC3FF8
1FFC3FF8
ENDCHAR

STARTCHAR afii9977
ENCODING 192
SWIDTH 333 0
DWIDTH 11 0
BBX 11 23 0 0
BITMAP
0780
EEE0
EEE0
ECE0
0800
0000
0000
FE00
3E00
3E00
3E00
3E00
3E00
3E00
3E00
3E00
3E00
3E00
3E40
3E40
1FC0
1F80
0600
ENDCHAR

STARTCHAR afii9793
ENCODING 193
SWIDTH 719 0
DWIDTH 24 0
BBX 23 24 0 0
BITMAP
000800
001800
001800
001800
003C00
003C00
007E00
007E00
005E00
00BF00
009F00
019F80
010F80
030FC0
0207C0
0207C0
07FFE0
0403E0
0C03F0
0803F0
0801F0
1801F8
3801FC
FF07FE
ENDCHAR

STARTCHAR afii9794
ENCODING 194
SWIDTH 667 0
DWIDTH 22 0
BBX 21 23 1 0
BITMAP
FFFF00
1F0FC0
1F07E0
1F03E0
1F03F0
1F03F0
1F03F0
1F03F0
1F03E0
1F07C0
1F1D80
1FFE00
1F0FC0
1F07E0
1F03F0
1F01F8
1F01F8
1F01F8
1F01F8
1F03F0
1F03F0
1F8FC0
FFFF00
ENDCHAR

STARTCHAR afii9796
ENCODING 195
SWIDTH 667 0
DWIDTH 22 0
BBX 20 23 1 0
BITMAP
FFFFF0
1F0070
1F0030
1F0010
1F0010
1F0010
1F0000
1F0000
1F0000
1F0000
1F0000
1F0000
1F0000
1F0000
1F0000
1F0000
1F0000
1F0000
1F0000
1F0000
1F0000
3F8000
FFF000
ENDCHAR

STARTCHAR afii9797
ENCODING 196
SWIDTH 667 0
DWIDTH 22 0
BBX 20 23 1 0
BITMAP
002000
006000
006000
00F000
00F000
00F800
01F800
01F800
037C00
027C00
067E00
043E00
043E00
0C3F00
081F00
181F80
100F80
300FC0
200FC0
2007C0
6007E0
4003E0
FFFFF0
ENDCHAR

STARTCHAR afii9798
ENCODING 197
SWIDTH 667 0
DWIDTH 22 0
BBX 20 23 1 0
BITMAP
FFFFE0
1F01E0
1F00E0
1F0060
1F0020
1F0420
1F0420
1F0400
1F0C00
1F0C00
1F1C00
1FFC00
1F1C00
1F0C00
1F0400
1F0400
1F0410
1F0010
1F0010
1F0030
1F0070
1F81E0
FFFFE0
ENDCHAR

STARTCHAR afii9801
ENCODING 198
SWIDTH 719 0
DWIDTH 24 0
BBX 22 23 1 0
BITMAP
3FFFF0
3C07E0
3807E0
300FC0
200FC0
201F80
203F00
003F00
007E00
00FC00
00FC00
01F800
01F800
03F000
07E000
07E004
0FC004
0FC008
1F8008
3F0018
3F0038
7E00F8
FFFFF8
ENDCHAR

STARTCHAR afii9802
ENCODING 199
SWIDTH 823 0
DWIDTH 27 0
BBX 26 23 1 0
BITMAP
FFE1FFC0
3F807F00
1F003E00
1F003E00
1F003E00
1F003E00
1F003E00
1F003E00
1F003E00
1F003E00
1F003E00
1FFFFE00
1F003E00
1F003E00
1F003E00
1F003E00
1F003E00
1F003E00
1F003E00
1F003E00
1F003E00
3F807F00
FFE1FFC0
ENDCHAR

STARTCHAR afii9803
ENCODING 200
SWIDTH 823 0
DWIDTH 27 0
BBX 25 23 1 0
BITMAP
00FF8000
03C1E000
0F80F800
1F007C00
3E003E00
3E003E00
7E003F00
7C001F00
7C411F80
FC411F80
FC7F1F80
FC7F1F80
FC7F1F80
FC7F1F80
FC411F80
7C411F00
7E003F00
3E003E00
3E003E00
1F007C00
0F80F800
03C3E000
00FF8000
ENDCHAR

STARTCHAR afii9804
ENCODING 201
SWIDTH 385 0
DWIDTH 13 0
BBX 11 23 1 0
BITMAP
FFE0
3F80
1F00
1F00
1F00
1F00
1F00
1F00
1F00
1F00
1F00
1F00
1F00
1F00
1F00
1F00
1F00
1F00
1F00
1F00
1F00
3F80
FFE0
ENDCHAR

STARTCHAR afii9805
ENCODING 202
SWIDTH 719 0
DWIDTH 24 0
BBX 23 23 1 0
BITMAP
FFE7F8
3F81E0
1F01C0
1F0180
1F0300
1F0600
1F0C00
1F1800
1F1000
1F3800
1F7C00
1FFC00
1FBE00
1F3F00
1F3F00
1F1F80
1F1F80
1F0FC0
1F07E0
1F07E0
1F03F0
3F83F8
FFEFFE
ENDCHAR

STARTCHAR afii9806
ENCODING 203
SWIDTH 719 0
DWIDTH 24 0
BBX 22 23 1 0
BITMAP
001000
003000
003000
007800
007800
007C00
00FC00
00BC00
01BE00
013E00
033F00
021F00
021F00
061F80
040F80
0C0FC0
0807C0
0807E0
1807E0
1003E0
3003F0
7003F8
FE0FFC
ENDCHAR

STARTCHAR afii9807
ENCODING 204
SWIDTH 990 0
DWIDTH 33 0
BBX 32 23 0 0
BITMAP
FF8001FF
3FC001FC
17C002F8
17E002F8
17E006F8
13E004F8
13F00CF8
11F008F8
11F818F8
10F810F8
10FC30F8
107C20F8
107E20F8
107E40F8
103F40F8
103FC0F8
101F80F8
101F80F8
100F00F8
100F00F8
100600F8
380601FC
FE0207FF
ENDCHAR

STARTCHAR afii9808
ENCODING 205
SWIDTH 771 0
DWIDTH 25 0
BBX 24 23 1 0
BITMAP
FF007F
7F001C
3F8008
1FC008
17E008
17F008
13F808
11FC08
10FC08
107E08
107F08
103F88
101FC8
100FE8
1007F8
1003F8
1001F8
1000F8
1000F8
100078
100038
380018
FF0008
ENDCHAR

STARTCHAR afii9809
ENCODING 206
SWIDTH 667 0
DWIDTH 22 0
BBX 20 23 1 0
BITMAP
7FFFE0
7FFFE0
7FFFE0
7FFFE0
7FFFE0
400020
400020
080100
080100
0FFF00
0FFF00
0FFF00
0FFF00
080100
080100
800010
800010
800010
FFFFF0
FFFFF0
FFFFF0
FFFFF0
FFFFF0
ENDCHAR

STARTCHAR afii9810
ENCODING 207
SWIDTH 823 0
DWIDTH 27 0
BBX 25 23 1 0
BITMAP
00FF8000
03E1E000
0F80F800
1F007C00
3E003E00
3E003E00
7E003F00
7C001F00
FC001F80
FC001F80
FC001F80
FC001F80
FC001F80
FC001F80
FC001F80
7E001F00
7E003F00
3E003E00
3F003E00
1F007C00
0F80F800
03C3E000
00FF8000
ENDCHAR

STARTCHAR afii9811
ENCODING 208
SWIDTH 823 0
DWIDTH 27 0
BBX 26 23 1 0
BITMAP
FFFFFFC0
1F003E00
1F003E00
1F003E00
1F003E00
1F003E00
1F003E00
1F003E00
1F003E00
1F003E00
1F003E00
1F003E00
1F003E00
1F003E00
1F003E00
1F003E00
1F003E00
1F003E00
1F003E00
1F003E00
1F003E00
3F807F00
FFE1FFC0
ENDCHAR

STARTCHAR afii9813
ENCODING 209
SWIDTH 667 0
DWIDTH 22 0
BBX 20 23 1 0
BITMAP
FFFE00
1F0F80
1F07E0
1F03E0
1F03F0
1F03F0
1F03F0
1F03F0
1F03E0
1F07C0
1F0F80
1FFE00
1F0000
1F0000
1F0000
1F0000
1F0000
1F0000
1F0000
1F0000
1F0000
3F8000
FFE000
ENDCHAR

STARTCHAR afii9814
ENCODING 211
SWIDTH 667 0
DWIDTH 22 0
BBX 20 23 1 0
BITMAP
FFFFE0
FC03E0
7E00E0
7E0060
3F0020
1F8020
0FC020
0FC000
07E000
03E000
03E000
00C000
018000
010000
020000
060010
0C0010
180030
1000F0
3FFFF0
7FFFF0
FFFFF0
FFFFF0
ENDCHAR

STARTCHAR afii9816
ENCODING 212
SWIDTH 667 0
DWIDTH 22 0
BBX 21 23 0 0
BITMAP
FFFFF8
F0F878
C0F818
C0F818
80F808
80F808
00F800
00F800
00F800
00F800
00F800
00F800
00F800
00F800
00F800
00F800
00F800
00F800
00F800
00F800
00F800
01FC00
07FF00
ENDCHAR

STARTCHAR afii9817
ENCODING 213
SWIDTH 719 0
DWIDTH 24 0
BBX 22 23 1 0
BITMAP
FFC0FC
3F0038
3F0030
1F8020
1F8060
0FC040
07C0C0
07E080
03E180
03F100
01FB00
01FA00
00FE00
00FC00
007C00
007C00
007C00
007C00
007C00
007C00
007C00
00FE00
07FFC0
ENDCHAR

STARTCHAR afii9818
ENCODING 214
SWIDTH 823 0
DWIDTH 27 0
BBX 25 23 1 0
BITMAP
01FFC000
007F0000
003E0000
01FFC000
0FBFF800
3E3E3E00
7C3E1E00
7C3E1F00
F83E0F80
F83E0F80
F83E0F80
F83E0F80
F83E0F80
F83E0F80
F83E0F80
7C3E1F00
3C3E1E00
1E3E3C00
0FFFF800
01FF8000
003E0000
007F0000
01FFC000
ENDCHAR

STARTCHAR afii9819
ENCODING 215
SWIDTH 719 0
DWIDTH 24 0
BBX 22 23 1 0
BITMAP
FFC3F8
7F00E0
3F00C0
1F8080
1FC180
0FC300
07E200
07E400
03FC00
01F800
01F800
00FC00
007E00
00FE00
01BF00
013F80
031F80
060FC0
0C0FC0
0807E0
1803F0
3807F8
FF0FFC
ENDCHAR

STARTCHAR afii9820
ENCODING 216
SWIDTH 823 0
DWIDTH 27 0
BBX 25 23 1 0
BITMAP
F0FF8780
7C7F0F00
7C3E1F00
7E3E1F00
7E3E3F00
7E3E3F00
7E3E3E00
3E3E3E00
3E3E3E00
3E3E3E00
1F3E3C00
0F3E7800
03FFE000
003E0000
003E0000
003E0000
003E0000
003E0000
003E0000
003E0000
003E0000
007F0000
00FF8000
ENDCHAR

STARTCHAR afii9821
ENCODING 217
SWIDTH 823 0
DWIDTH 27 0
BBX 26 23 1 0
BITMAP
00FFC000
03E1F000
0F807C00
1F003E00
1F003F00
3E001F00
3E001F80
7E001F80
7E001F80
7E001F80
7E001F80
7E001F80
3E001F00
3F001F00
1F003E00
0F003C00
07807800
80C0C040
C04080C0
FFC0FFC0
FFC0FFC0
FFE1FFC0
FFE1FFC0
ENDCHAR

STARTCHAR afii9943
ENCODING 218
SWIDTH 385 0
DWIDTH 13 0
BBX 13 29 0 0
BITMAP
7070
F8F8
F8F8
F8F8
7020
0000
7FF0
1FC0
0F80
0F80
0F80
0F80
0F80
0F80
0F80
0F80
0F80
0F80
0F80
0F80
0F80
0F80
0F80
0F80
0F80
0F80
0F80
1FC0
7FF0
ENDCHAR

STARTCHAR afii9944
ENCODING 219
SWIDTH 719 0
DWIDTH 24 0
BBX 22 29 1 0
BITMAP
01C1C0
03E3E0
03E3E0
03E3E0
01C080
000000
FFC0FC
3F0038
3F0030
1F8020
1F8060
0FC040
07C0C0
07E080
03E180
03F100
01FB00
01FA00
00FE00
00FC00
007C00
007C00
007C00
007C00
007C00
007C00
007C00
00FE00
07FFC0
ENDCHAR

STARTCHAR afii9968
ENCODING 220
SWIDTH 552 0
DWIDTH 18 0
BBX 17 23 1 0
BITMAP
01F000
03C000
038000
030000
060000
000000
000000
0F1F00
1C9E00
385E00
787E00
783E00
783E00
F83C00
F83C00
F87C00
F87C00
F87800
787880
787480
38F700
1DE700
0F8200
ENDCHAR

STARTCHAR afii9969
ENCODING 221
SWIDTH 438 0
DWIDTH 14 0
BBX 12 23 1 0
BITMAP
07C0
0700
0E00
0C00
1C00
0000
0000
1FE0
3C70
7870
7870
7800
7800
1C00
07C0
3C00
7800
F800
F870
F870
7870
3CF0
0FC0
ENDCHAR

STARTCHAR afii9970
ENCODING 222
SWIDTH 604 0
DWIDTH 20 0
BBX 17 30 1 -7
BITMAP
00F800
01E000
01C000
018000
030000
000000
000000
1C1C00
7E7F00
7FCF00
9F8F80
9F0F80
1F0F80
1F0F80
1F0F80
1F0F80
1F0F80
1F0F80
1F0F80
1F0F80
1F0F80
1F0F80
1F0F80
000F80
000F80
000F80
000F80
000780
000780
000780
ENDCHAR

STARTCHAR afii9971
ENCODING 223
SWIDTH 333 0
DWIDTH 11 0
BBX 10 24 0 0
BITMAP
0F80
0F00
1E00
1C00
1800
3000
0000
0000
FE00
3E00
3E00
3E00
3E00
3E00
3E00
3E00
3E00
3E00
3E00
3E40
3E40
1F80
1F80
0E00
ENDCHAR

STARTCHAR afii9978
ENCODING 224
SWIDTH 500 0
DWIDTH 17 0
BBX 15 23 1 0
BITMAP
03C0
3BB8
3B38
3B38
0600
0000
0000
7860
FC38
FC1C
7C0C
7C0C
3C0E
3C0E
3C0E
3C0E
3C0E
3C0C
3C0C
3E1C
3E18
1E30
07E0
ENDCHAR

STARTCHAR afii9825
ENCODING 225
SWIDTH 552 0
DWIDTH 18 0
BBX 17 16 1 0
BITMAP
0F1F00
1C9E00
385E00
787E00
783E00
783E00
F83C00
F83C00
F87C00
F87C00
F87800
787880
787480
38F700
1DE700
0F8200
ENDCHAR

STARTCHAR afii9826
ENCODING 226
SWIDTH 500 0
DWIDTH 17 0
BBX 14 29 2 -6
BITMAP
1FC0
38E0
78F0
78F8
F8F8
F8F8
F8F0
F8F0
FB80
FBC0
F870
F870
F878
F878
F87C
F87C
F87C
F87C
F878
F878
F8F0
FFE0
FBC0
F800
F800
F800
F800
F800
F000
ENDCHAR

STARTCHAR afii9828
ENCODING 227
SWIDTH 500 0
DWIDTH 17 0
BBX 15 22 1 -6
BITMAP
781E
7C3E
FC3C
CE3C
8638
8678
0270
0270
0360
0160
0140
01C0
0180
0180
0180
0380
0380
0780
0780
0780
0780
0700
ENDCHAR

STARTCHAR afii9829
ENCODING 228
SWIDTH 500 0
DWIDTH 17 0
BBX 15 24 1 0
BITMAP
0FE0
18F0
1078
1038
1800
0C00
0600
0380
03E0
03F0
0EF8
3C7C
787C
783C
F83E
F83E
F83E
F83E
783E
783C
783C
3878
1C70
07C0
ENDCHAR

STARTCHAR afii9830
ENCODING 229
SWIDTH 438 0
DWIDTH 14 0
BBX 12 16 1 0
BITMAP
1FE0
3C70
7870
7870
7800
7800
1C00
07C0
3C00
7800
F800
F870
F870
7870
3CF0
0FC0
ENDCHAR

STARTCHAR afii9833
ENCODING 230
SWIDTH 438 0
DWIDTH 14 0
BBX 12 31 1 -7
BITMAP
3060
61E0
63E0
27C0
3F00
1800
1000
2000
2000
4000
4000
C000
8000
8000
8000
8000
8000
C000
C000
FF80
FFE0
7FF0
3FF0
1FF0
0010
0010
0010
0030
0FE0
07E0
0780
ENDCHAR

STARTCHAR afii9834
ENCODING 231
SWIDTH 604 0
DWIDTH 20 0
BBX 17 23 1 -7
BITMAP
1C1C00
7E7F00
7FCF00
9F8F80
9F0F80
1F0F80
1F0F80
1F0F80
1F0F80
1F0F80
1F0F80
1F0F80
1F0F80
1F0F80
1F0F80
1F0F80
000F80
000F80
000F80
000F80
000780
000780
000780
ENDCHAR

STARTCHAR afii9835
ENCODING 232
SWIDTH 500 0
DWIDTH 17 0
BBX 15 24 1 0
BITMAP
07C0
0E60
1C70
3838
383C
783C
783C
783C
F83E
F83E
F83E
F83E
FFFE
F83E
F83E
F83E
F83E
783C
783C
783C
3838
1C78
0C70
07C0
ENDCHAR

STARTCHAR afii9836
ENCODING 233
SWIDTH 333 0
DWIDTH 11 0
BBX 10 16 0 0
BITMAP
FE00
3E00
3E00
3E00
3E00
3E00
3E00
3E00
3E00
3E00
3E00
3E40
3E40
1F80
1F80
0E00
ENDCHAR

STARTCHAR afii9837
ENCODING 234
SWIDTH 552 0
DWIDTH 18 0
BBX 17 16 0 0
BITMAP
FE0F80
3E1F80
3E3380
3E6000
3E4000
3EC000
3FE000
3EF000
3FF000
3EF800
3EFC00
3E7C00
3E3E00
3E1F00
3E3F00
3E3F80
ENDCHAR

STARTCHAR afii9838
ENCODING 235
SWIDTH 552 0
DWIDTH 18 0
BBX 16 23 1 0
BITMAP
3800
3C00
7E00
4600
4200
0300
0100
0100
0300
0380
0380
0780
0780
0FC0
0F40
1F40
1E40
3E20
3E21
3C31
7C3F
781F
F80E
ENDCHAR

STARTCHAR afii9839
ENCODING 236
SWIDTH 552 0
DWIDTH 18 0
BBX 17 23 1 -7
BITMAP
F87C00
F87C00
F87C00
F87C00
F87C00
F87C00
F87C00
F87C00
F87C00
F87C00
F87C00
F87C80
F87C80
FDBF00
FF3F00
FE1C00
700000
F00000
F00000
F00000
F00000
F00000
600000
ENDCHAR

STARTCHAR afii9840
ENCODING 237
SWIDTH 500 0
DWIDTH 17 0
BBX 14 16 1 0
BITMAP
0808
FC1C
7C1C
3C1C
3E1C
3E0C
1E08
1F18
1F10
0F20
0FA0
0FC0
07C0
0780
0780
0300
ENDCHAR

STARTCHAR afii9841
ENCODING 238
SWIDTH 500 0
DWIDTH 17 0
BBX 14 31 2 -7
BITMAP
30C0
63C0
67C0
3F00
1000
3000
2000
2000
31F0
1BF0
1FE0
3000
6000
4000
C000
8000
8000
C000
C000
FF80
FFF0
7FF8
3FFC
1FFC
000C
0004
0004
000C
03F8
01F8
01E0
ENDCHAR

STARTCHAR afii9842
ENCODING 239
SWIDTH 500 0
DWIDTH 17 0
BBX 15 16 1 0
BITMAP
0FC0
1C70
3C38
783C
783C
F83E
F83E
F83E
F83E
F83E
783E
783C
783C
3C78
1C70
07C0
ENDCHAR

STARTCHAR afii9843
ENCODING 240
SWIDTH 552 0
DWIDTH 18 0
BBX 16 16 1 0
BITMAP
3FFF
7FFF
7FFF
CE30
8C30
0C70
0C70
0C70
1C70
1C70
1C71
3C71
3C73
783E
783E
301C
ENDCHAR

STARTCHAR afii9845
ENCODING 241
SWIDTH 500 0
DWIDTH 17 0
BBX 14 22 2 -6
BITMAP
0FC0
3CE0
38F0
7878
7878
F87C
F87C
F87C
F87C
F87C
F87C
F878
F878
FCF0
FBE0
F9C0
F800
F800
F800
F800
F800
F000
ENDCHAR

STARTCHAR afii9847
ENCODING 242
SWIDTH 438 0
DWIDTH 14 0
BBX 13 23 1 -7
BITMAP
03E0
0FF0
1FF8
3030
6000
4000
C000
8000
8000
C000
C000
FF00
FFE0
7FF0
3FF8
0FF8
0018
0008
0008
0018
07F0
07E0
03C0
ENDCHAR

STARTCHAR afii9846
ENCODING 243
SWIDTH 552 0
DWIDTH 18 0
BBX 17 16 1 0
BITMAP
07FF80
1FFF80
3FFF80
7F6000
7C7000
F83800
F83C00
F83C00
F83E00
F83E00
783E00
783C00
3C3C00
3C3800
1E7000
07E000
ENDCHAR

STARTCHAR afii9848
ENCODING 244
SWIDTH 438 0
DWIDTH 14 0
BBX 12 16 1 0
BITMAP
3FF0
7FF0
7FF0
C600
8600
0E00
0E00
0E00
0E00
0E00
0E20
0E20
0F20
07E0
07C0
0380
ENDCHAR

STARTCHAR afii9849
ENCODING 245
SWIDTH 500 0
DWIDTH 17 0
BBX 15 16 1 0
BITMAP
7860
FC18
7C1C
7C0C
3C0C
3E0E
3E0E
3E0E
3E0E
3E0E
3E0C
3E0C
3E1C
1E18
1E30
07E0
ENDCHAR

STARTCHAR afii9850
ENCODING 246
SWIDTH 604 0
DWIDTH 20 0
BBX 19 23 0 -7
BITMAP
073C00
1C7F00
3CE780
78E7C0
78E3C0
78E3E0
F8E3E0
F8E3E0
F8E3E0
F8E3E0
78E3C0
78E3C0
38E380
3CE780
0EEF00
07FC00
00E000
00E000
00E000
00E000
00E000
00E000
00E000
ENDCHAR

STARTCHAR afii9851
ENCODING 247
SWIDTH 552 0
DWIDTH 18 0
BBX 16 23 1 -7
BITMAP
381E
7C3E
7C3C
463C
4278
8278
02F0
01F0
01E0
01E0
03E0
03C0
07C0
0780
0FC0
0F40
1F40
1E61
1E21
3C33
3C3F
781E
781C
ENDCHAR

STARTCHAR afii9852
ENCODING 248
SWIDTH 719 0
DWIDTH 24 0
BBX 22 22 1 -6
BITMAP
F0707C
7870F0
7870F0
7C70F0
7C71F0
7C71F0
7C71F0
3C71F0
3C71E0
3C71E0
3E73E0
1E73C0
1E73C0
0F7380
077700
01FC00
007000
007000
007000
007000
007000
007000
ENDCHAR

STARTCHAR afii9853
ENCODING 249
SWIDTH 719 0
DWIDTH 24 0
BBX 22 16 1 0
BITMAP
078780
1E01E0
3C30F0
787878
787878
F8787C
F8787C
F8787C
F8787C
F8307C
F8307C
783078
7C3078
3C48F0
1F87E0
0F03C0
ENDCHAR

STARTCHAR afii9975
ENCODING 250
SWIDTH 333 0
DWIDTH 11 0
BBX 11 23 0 0
BITMAP
F3C0
F3C0
F3C0
F3C0
0000
0000
0000
7F00
1F00
1F00
1F00
1F00
1F00
1F00
1F00
1F00
1F00
1F00
1F20
1F20
0FC0
0FC0
0700
ENDCHAR

STARTCHAR afii9976
ENCODING 251
SWIDTH 500 0
DWIDTH 17 0
BBX 14 23 1 0
BITMAP
3CF0
3CF0
3CF0
3CF0
0000
0000
0000
F0C0
F830
FC38
7C18
7C18
7C1C
3C1C
3C1C
3C1C
3C1C
3C18
3C18
3C18
3C30
1E60
07C0
ENDCHAR

STARTCHAR afii9972
ENCODING 252
SWIDTH 500 0
DWIDTH 17 0
BBX 15 24 1 0
BITMAP
03E0
03C0
0380
0700
0600
0400
0000
0000
0FC0
1C70
3C38
783C
783C
F83E
F83E
F83E
F83E
F83E
783E
783C
783C
3C38
1C70
07C0
ENDCHAR

STARTCHAR afii9973
ENCODING 253
SWIDTH 500 0
DWIDTH 17 0
BBX 15 23 1 0
BITMAP
01F0
01E0
01C0
0380
0300
0200
0000
7860
FC18
7C1C
7C0C
3C0C
3E0E
3E0E
3E0E
3E0E
3E0E
3E0C
3E0C
3E1C
1E18
1E30
07E0
ENDCHAR

STARTCHAR afii9974
ENCODING 254
SWIDTH 719 0
DWIDTH 24 0
BBX 22 23 1 0
BITMAP
003E00
007800
007000
006000
00C000
000000
000000
078780
1E01E0
3C30F0
787878
787878
F8787C
F8787C
F8787C
F8787C
F8307C
F8307C
783078
7C3078
3C48F0
1F87E0
0F03C0
ENDCHAR
ENDFONT
